<svg xmlns="http://www.w3.org/2000/svg" viewBox="0 0 41 41" width="41" height="41">
	<style>
		tspan { white-space:pre }
		.shp0 { fill: #f5c506 } 
		.shp1 { fill: #f5c506 } 
	</style>
	<g id="menu">
		<g id="logo">
			<g id="Group 1">
				<path id="Shape 8 copy 4" class="shp0" d="M2.04 11.47L10.99 11.14L10.93 2.31L14.76 5.91L14.82 14.74L5.86 15.08L2.04 11.47ZM7.84 16.94L16.8 16.61L16.74 7.77L20.56 11.38L20.62 20.21L11.67 20.54L7.84 16.94ZM30.65 38.43L30.59 29.6L39.55 29.27L35.73 25.66L26.77 26L26.83 34.83L30.65 38.43ZM24.85 32.96L24.79 24.13L33.75 23.8L29.92 20.19L20.96 20.53L21.02 29.36L24.85 32.96ZM29.82 1.89L30.16 10.71L39.13 10.66L35.47 14.42L26.51 14.48L26.17 5.66L29.82 1.89ZM24.27 7.61L24.61 16.43L33.58 16.37L29.92 20.14L20.96 20.2L20.62 11.38L24.27 7.61ZM2.46 30.08L11.42 30.02L11.76 38.85L15.42 35.08L15.08 26.25L6.12 26.31L2.46 30.08ZM8.01 24.36L16.97 24.3L17.31 33.13L20.97 29.36L20.63 20.54L11.67 20.6L8.01 24.36Z" />
				<path id="Shape 8 copy 3" class="shp1" d="M1 26.84L7.23 20.5L1 14.16L6.29 14.16L12.53 20.5L6.29 26.84L1 26.84ZM9.03 26.84L15.27 20.5L9.03 14.16L14.32 14.16L20.56 20.5L14.32 26.84L9.03 26.84ZM40.59 26.84L34.35 20.5L40.59 14.16L35.3 14.16L29.06 20.5L35.3 26.84L40.59 26.84ZM32.56 26.84L26.32 20.5L32.56 14.16L27.27 14.16L21.03 20.5L27.27 26.84L32.56 26.84ZM14.36 1L20.79 7.14L27.23 1L27.23 6.21L20.79 12.36L14.36 6.21L14.36 1ZM14.36 8.91L20.79 15.05L27.23 8.91L27.23 14.12L20.79 20.27L14.36 14.12L14.36 8.91ZM14.36 40L20.79 33.86L27.23 40L27.23 34.79L20.79 28.64L14.36 34.79L14.36 40ZM14.36 32.09L20.79 25.94L27.23 32.09L27.23 26.88L20.79 20.73L14.36 26.88L14.36 32.09Z" />
			</g>
		</g>
	</g>
</svg>